<svg width="48" height="48" viewBox="0 0 48 48" fill="none" xmlns="http://www.w3.org/2000/svg">
<path d="M0 5C0 2.23858 2.23858 0 5 0H43C45.7614 0 48 2.23858 48 5V24H0V5Z" fill="#0C0E0B"/>
<path d="M48 43C48 45.7614 45.7614 48 43 48L5 48C2.23858 48 1.95703e-07 45.7614 4.37114e-07 43L2.09815e-06 24L48 24L48 43Z" fill="#EC680E"/>
<path d="M12.6796 20V9.536H14.5356V18.432H18.8876V20H12.6796ZM22.4548 20.192C21.7615 20.192 21.2015 19.984 20.7748 19.568C20.3481 19.1413 20.1348 18.5813 20.1348 17.888C20.1348 17.472 20.2201 17.104 20.3908 16.784C20.5721 16.4533 20.8495 16.1707 21.2228 15.936C21.6068 15.7013 22.0868 15.504 22.6628 15.344C23.2495 15.184 23.9481 15.0613 24.7588 14.976C24.7481 14.7733 24.7161 14.5813 24.6628 14.4C24.6201 14.208 24.5401 14.0427 24.4228 13.904C24.3161 13.7547 24.1721 13.6427 23.9908 13.568C23.8095 13.4827 23.5855 13.44 23.3188 13.44C22.9348 13.44 22.5561 13.5147 22.1828 13.664C21.8201 13.8133 21.4628 13.9947 21.1108 14.208L20.4388 12.976C20.8761 12.6987 21.3668 12.4587 21.9108 12.256C22.4548 12.0533 23.0415 11.952 23.6708 11.952C24.6521 11.952 25.3828 12.2453 25.8628 12.832C26.3535 13.408 26.5988 14.2453 26.5988 15.344V20H25.0788L24.9508 19.136H24.8868C24.5348 19.4347 24.1561 19.6853 23.7508 19.888C23.3561 20.0907 22.9241 20.192 22.4548 20.192ZM23.0468 18.752C23.3668 18.752 23.6548 18.6773 23.9108 18.528C24.1775 18.3787 24.4601 18.1653 24.7588 17.888V16.128C24.2255 16.192 23.7775 16.2773 23.4148 16.384C23.0521 16.4907 22.7588 16.6133 22.5348 16.752C22.3108 16.88 22.1508 17.0293 22.0548 17.2C21.9588 17.3707 21.9108 17.552 21.9108 17.744C21.9108 18.096 22.0175 18.352 22.2308 18.512C22.4441 18.672 22.7161 18.752 23.0468 18.752ZM32.6088 20.192C32.2461 20.192 31.8781 20.1067 31.5048 19.936C31.1421 19.7547 30.7955 19.4987 30.4648 19.168H30.4168L30.2568 20H28.8008V8.704H30.6408V11.616L30.5928 12.928C30.9235 12.64 31.2808 12.4053 31.6648 12.224C32.0595 12.0427 32.4595 11.952 32.8648 11.952C33.3555 11.952 33.7928 12.048 34.1768 12.24C34.5608 12.4213 34.8861 12.688 35.1528 13.04C35.4195 13.3813 35.6221 13.7973 35.7608 14.288C35.8995 14.7787 35.9688 15.328 35.9688 15.936C35.9688 16.608 35.8728 17.2107 35.6808 17.744C35.4995 18.2667 35.2541 18.7093 34.9448 19.072C34.6355 19.4347 34.2781 19.712 33.8728 19.904C33.4675 20.096 33.0461 20.192 32.6088 20.192ZM32.2248 18.672C32.7475 18.672 33.1848 18.448 33.5368 18C33.8888 17.5413 34.0648 16.864 34.0648 15.968C34.0648 15.1787 33.9315 14.5653 33.6648 14.128C33.3981 13.6907 32.9661 13.472 32.3688 13.472C31.8141 13.472 31.2381 13.7653 30.6408 14.352V18.016C30.9181 18.2613 31.1901 18.432 31.4568 18.528C31.7341 18.624 31.9901 18.672 32.2248 18.672Z" fill="white"/>
<path d="M18.5702 40V29.536H20.4262V40H18.5702ZM23.0858 40V29.536H25.8858C27.4858 29.536 28.7338 29.968 29.6298 30.832C30.5258 31.696 30.9738 32.992 30.9738 34.72C30.9738 35.584 30.8565 36.3467 30.6218 37.008C30.3978 37.6693 30.0671 38.224 29.6298 38.672C29.2031 39.1093 28.6805 39.44 28.0618 39.664C27.4538 39.888 26.7605 40 25.9818 40H23.0858ZM24.9418 38.496H25.7578C26.8245 38.496 27.6405 38.192 28.2058 37.584C28.7818 36.9653 29.0698 36.0107 29.0698 34.72C29.0698 33.44 28.7818 32.5067 28.2058 31.92C27.6298 31.3333 26.8138 31.04 25.7578 31.04H24.9418V38.496Z" fill="white"/>
</svg>
